<mxfile host="app.diagrams.net" agent="Mozilla/5.0 (Windows NT 10.0; Win64; x64; rv:137.0) Gecko/20100101 Firefox/137.0" version="27.1.4">
  <diagram name="Page-1" id="s5eVYshwGil51ruGtvcF">
    <mxGraphModel dx="1272" dy="1888" grid="1" gridSize="10" guides="1" tooltips="1" connect="1" arrows="1" fold="1" page="1" pageScale="1" pageWidth="1169" pageHeight="827" math="0" shadow="0">
      <root>
        <mxCell id="0" />
        <mxCell id="1" parent="0" />
        <mxCell id="24AqgHMneCk-In3_yVUN-3" style="edgeStyle=none;curved=1;rounded=0;orthogonalLoop=1;jettySize=auto;html=1;entryX=0;entryY=0.5;entryDx=0;entryDy=0;fontSize=12;startSize=8;endSize=8;" edge="1" parent="1" source="24AqgHMneCk-In3_yVUN-1" target="24AqgHMneCk-In3_yVUN-2">
          <mxGeometry relative="1" as="geometry" />
        </mxCell>
        <mxCell id="24AqgHMneCk-In3_yVUN-5" style="edgeStyle=none;curved=1;rounded=0;orthogonalLoop=1;jettySize=auto;html=1;entryX=0.5;entryY=0;entryDx=0;entryDy=0;fontSize=12;startSize=8;endSize=8;" edge="1" parent="1" source="24AqgHMneCk-In3_yVUN-1" target="24AqgHMneCk-In3_yVUN-4">
          <mxGeometry relative="1" as="geometry" />
        </mxCell>
        <mxCell id="24AqgHMneCk-In3_yVUN-1" value="Swalwell Junction (Start)" style="rounded=1;whiteSpace=wrap;html=1;" vertex="1" parent="1">
          <mxGeometry x="80" y="40" width="120" height="80" as="geometry" />
        </mxCell>
        <mxCell id="24AqgHMneCk-In3_yVUN-10" style="edgeStyle=none;curved=1;rounded=0;orthogonalLoop=1;jettySize=auto;html=1;entryX=0.5;entryY=0;entryDx=0;entryDy=0;fontSize=12;startSize=8;endSize=8;" edge="1" parent="1" source="24AqgHMneCk-In3_yVUN-2" target="24AqgHMneCk-In3_yVUN-9">
          <mxGeometry relative="1" as="geometry" />
        </mxCell>
        <mxCell id="24AqgHMneCk-In3_yVUN-14" style="edgeStyle=none;curved=1;rounded=0;orthogonalLoop=1;jettySize=auto;html=1;entryX=0;entryY=0.5;entryDx=0;entryDy=0;fontSize=12;startSize=8;endSize=8;" edge="1" parent="1" source="24AqgHMneCk-In3_yVUN-2" target="24AqgHMneCk-In3_yVUN-13">
          <mxGeometry relative="1" as="geometry" />
        </mxCell>
        <mxCell id="24AqgHMneCk-In3_yVUN-2" value="&lt;div&gt;Depart Station&lt;/div&gt;&lt;div&gt;DP1&lt;/div&gt;" style="rhombus;whiteSpace=wrap;html=1;" vertex="1" parent="1">
          <mxGeometry x="270" y="40" width="80" height="80" as="geometry" />
        </mxCell>
        <mxCell id="24AqgHMneCk-In3_yVUN-4" value="Abort" style="rounded=0;whiteSpace=wrap;html=1;" vertex="1" parent="1">
          <mxGeometry x="80" y="190" width="120" height="60" as="geometry" />
        </mxCell>
        <mxCell id="24AqgHMneCk-In3_yVUN-6" value="Clear to start" style="text;html=1;align=center;verticalAlign=middle;whiteSpace=wrap;rounded=0;" vertex="1" parent="1">
          <mxGeometry x="210" y="50" width="60" height="30" as="geometry" />
        </mxCell>
        <mxCell id="24AqgHMneCk-In3_yVUN-8" value="Non-start" style="text;html=1;align=center;verticalAlign=middle;whiteSpace=wrap;rounded=0;" vertex="1" parent="1">
          <mxGeometry x="80" y="140" width="60" height="30" as="geometry" />
        </mxCell>
        <mxCell id="24AqgHMneCk-In3_yVUN-11" style="edgeStyle=none;curved=1;rounded=0;orthogonalLoop=1;jettySize=auto;html=1;fontSize=12;startSize=8;endSize=8;entryX=0.5;entryY=1;entryDx=0;entryDy=0;exitX=0.5;exitY=0;exitDx=0;exitDy=0;" edge="1" parent="1" source="24AqgHMneCk-In3_yVUN-9" target="24AqgHMneCk-In3_yVUN-2">
          <mxGeometry relative="1" as="geometry">
            <mxPoint x="250" y="140" as="targetPoint" />
            <Array as="points">
              <mxPoint x="260" y="180" />
              <mxPoint x="260" y="130" />
            </Array>
          </mxGeometry>
        </mxCell>
        <mxCell id="24AqgHMneCk-In3_yVUN-9" value="Wait" style="shape=process;whiteSpace=wrap;html=1;backgroundOutline=1;" vertex="1" parent="1">
          <mxGeometry x="250" y="190" width="120" height="60" as="geometry" />
        </mxCell>
        <mxCell id="24AqgHMneCk-In3_yVUN-12" value="Signal Red" style="text;html=1;align=center;verticalAlign=middle;whiteSpace=wrap;rounded=0;" vertex="1" parent="1">
          <mxGeometry x="300" y="140" width="60" height="30" as="geometry" />
        </mxCell>
        <mxCell id="24AqgHMneCk-In3_yVUN-17" style="edgeStyle=none;curved=1;rounded=0;orthogonalLoop=1;jettySize=auto;html=1;entryX=0.5;entryY=0;entryDx=0;entryDy=0;fontSize=12;startSize=8;endSize=8;" edge="1" parent="1" source="24AqgHMneCk-In3_yVUN-13" target="24AqgHMneCk-In3_yVUN-16">
          <mxGeometry relative="1" as="geometry" />
        </mxCell>
        <mxCell id="24AqgHMneCk-In3_yVUN-26" value="" style="edgeStyle=none;curved=1;rounded=0;orthogonalLoop=1;jettySize=auto;html=1;fontSize=12;startSize=8;endSize=8;" edge="1" parent="1" source="24AqgHMneCk-In3_yVUN-13">
          <mxGeometry relative="1" as="geometry">
            <mxPoint x="570" y="80" as="targetPoint" />
          </mxGeometry>
        </mxCell>
        <mxCell id="24AqgHMneCk-In3_yVUN-13" value="&lt;div&gt;Cruise Speed&lt;/div&gt;DP2" style="rhombus;whiteSpace=wrap;html=1;" vertex="1" parent="1">
          <mxGeometry x="410" y="40" width="80" height="80" as="geometry" />
        </mxCell>
        <mxCell id="24AqgHMneCk-In3_yVUN-15" value="Signal Green" style="text;html=1;align=center;verticalAlign=middle;whiteSpace=wrap;rounded=0;" vertex="1" parent="1">
          <mxGeometry x="350" y="40" width="60" height="30" as="geometry" />
        </mxCell>
        <mxCell id="24AqgHMneCk-In3_yVUN-16" value="React to Signal" style="ellipse;whiteSpace=wrap;html=1;aspect=fixed;" vertex="1" parent="1">
          <mxGeometry x="410" y="170" width="80" height="80" as="geometry" />
        </mxCell>
        <mxCell id="24AqgHMneCk-In3_yVUN-18" value="Any Signal Red" style="text;html=1;align=center;verticalAlign=middle;whiteSpace=wrap;rounded=0;" vertex="1" parent="1">
          <mxGeometry x="450" y="120" width="60" height="30" as="geometry" />
        </mxCell>
        <mxCell id="24AqgHMneCk-In3_yVUN-19" value="Off Page Link" style="whiteSpace=wrap;html=1;shape=mxgraph.basic.document" vertex="1" parent="1">
          <mxGeometry x="420" y="300" width="60" height="60" as="geometry" />
        </mxCell>
        <mxCell id="24AqgHMneCk-In3_yVUN-20" style="edgeStyle=none;curved=1;rounded=0;orthogonalLoop=1;jettySize=auto;html=1;entryX=0.5;entryY=0;entryDx=0;entryDy=0;entryPerimeter=0;fontSize=12;startSize=8;endSize=8;" edge="1" parent="1" source="24AqgHMneCk-In3_yVUN-16" target="24AqgHMneCk-In3_yVUN-19">
          <mxGeometry relative="1" as="geometry" />
        </mxCell>
        <mxCell id="24AqgHMneCk-In3_yVUN-21" value="Emergency" style="text;html=1;align=center;verticalAlign=middle;whiteSpace=wrap;rounded=0;" vertex="1" parent="1">
          <mxGeometry x="460" y="260" width="60" height="30" as="geometry" />
        </mxCell>
        <mxCell id="24AqgHMneCk-In3_yVUN-22" style="edgeStyle=none;curved=1;rounded=0;orthogonalLoop=1;jettySize=auto;html=1;fontSize=12;startSize=8;endSize=8;entryX=0.5;entryY=1;entryDx=0;entryDy=0;exitX=0.5;exitY=0;exitDx=0;exitDy=0;" edge="1" parent="1" target="24AqgHMneCk-In3_yVUN-13">
          <mxGeometry relative="1" as="geometry">
            <mxPoint x="450" y="100" as="targetPoint" />
            <mxPoint x="450" y="170" as="sourcePoint" />
            <Array as="points">
              <mxPoint x="420" y="160" />
              <mxPoint x="420" y="130" />
            </Array>
          </mxGeometry>
        </mxCell>
        <mxCell id="24AqgHMneCk-In3_yVUN-23" value="Resolved" style="text;html=1;align=center;verticalAlign=middle;whiteSpace=wrap;rounded=0;" vertex="1" parent="1">
          <mxGeometry x="360" y="130" width="60" height="30" as="geometry" />
        </mxCell>
        <mxCell id="24AqgHMneCk-In3_yVUN-24" value="Resolved" style="text;html=1;align=center;verticalAlign=middle;whiteSpace=wrap;rounded=0;" vertex="1" parent="1">
          <mxGeometry x="200" y="140" width="60" height="30" as="geometry" />
        </mxCell>
        <mxCell id="24AqgHMneCk-In3_yVUN-29" style="edgeStyle=none;curved=1;rounded=0;orthogonalLoop=1;jettySize=auto;html=1;fontSize=12;startSize=8;endSize=8;" edge="1" parent="1" source="24AqgHMneCk-In3_yVUN-25" target="24AqgHMneCk-In3_yVUN-28">
          <mxGeometry relative="1" as="geometry" />
        </mxCell>
        <mxCell id="24AqgHMneCk-In3_yVUN-25" value="&lt;div&gt;Approach Station&lt;/div&gt;&lt;div&gt;DP3&lt;/div&gt;" style="rhombus;whiteSpace=wrap;html=1;" vertex="1" parent="1">
          <mxGeometry x="680" y="40" width="80" height="80" as="geometry" />
        </mxCell>
        <mxCell id="24AqgHMneCk-In3_yVUN-27" value="&lt;div&gt;Green Signal&lt;/div&gt;&lt;div&gt;Maintain Speed&lt;/div&gt;" style="text;html=1;align=center;verticalAlign=middle;whiteSpace=wrap;rounded=0;" vertex="1" parent="1">
          <mxGeometry x="485" y="30" width="60" height="30" as="geometry" />
        </mxCell>
        <mxCell id="24AqgHMneCk-In3_yVUN-28" value="Stop at Station" style="ellipse;whiteSpace=wrap;html=1;aspect=fixed;" vertex="1" parent="1">
          <mxGeometry x="680" y="170" width="80" height="80" as="geometry" />
        </mxCell>
        <mxCell id="24AqgHMneCk-In3_yVUN-30" value="Yes" style="text;html=1;align=center;verticalAlign=middle;whiteSpace=wrap;rounded=0;" vertex="1" parent="1">
          <mxGeometry x="720" y="130" width="60" height="30" as="geometry" />
        </mxCell>
        <mxCell id="24AqgHMneCk-In3_yVUN-31" value="Off Page Link for Station stop" style="whiteSpace=wrap;html=1;shape=mxgraph.basic.document" vertex="1" parent="1">
          <mxGeometry x="690" y="300" width="60" height="60" as="geometry" />
        </mxCell>
        <mxCell id="24AqgHMneCk-In3_yVUN-32" style="edgeStyle=none;curved=1;rounded=0;orthogonalLoop=1;jettySize=auto;html=1;entryX=0.5;entryY=0;entryDx=0;entryDy=0;entryPerimeter=0;fontSize=12;startSize=8;endSize=8;" edge="1" parent="1" source="24AqgHMneCk-In3_yVUN-28" target="24AqgHMneCk-In3_yVUN-31">
          <mxGeometry relative="1" as="geometry" />
        </mxCell>
        <mxCell id="24AqgHMneCk-In3_yVUN-34" style="edgeStyle=none;curved=1;rounded=0;orthogonalLoop=1;jettySize=auto;html=1;entryX=0;entryY=0.5;entryDx=0;entryDy=0;fontSize=12;startSize=8;endSize=8;" edge="1" parent="1" source="24AqgHMneCk-In3_yVUN-33" target="24AqgHMneCk-In3_yVUN-25">
          <mxGeometry relative="1" as="geometry" />
        </mxCell>
        <mxCell id="24AqgHMneCk-In3_yVUN-33" value="Off Page Link for each Signal" style="whiteSpace=wrap;html=1;shape=mxgraph.basic.document" vertex="1" parent="1">
          <mxGeometry x="570" y="50" width="60" height="60" as="geometry" />
        </mxCell>
        <mxCell id="24AqgHMneCk-In3_yVUN-35" style="edgeStyle=none;curved=1;rounded=0;orthogonalLoop=1;jettySize=auto;html=1;fontSize=12;startSize=8;endSize=8;exitX=1;exitY=0.5;exitDx=0;exitDy=0;" edge="1" parent="1" source="24AqgHMneCk-In3_yVUN-25">
          <mxGeometry relative="1" as="geometry">
            <mxPoint x="790" y="360" as="sourcePoint" />
            <mxPoint x="810" y="80" as="targetPoint" />
          </mxGeometry>
        </mxCell>
        <mxCell id="24AqgHMneCk-In3_yVUN-36" value="Slow down" style="ellipse;whiteSpace=wrap;html=1;aspect=fixed;" vertex="1" parent="1">
          <mxGeometry x="810" y="40" width="80" height="80" as="geometry" />
        </mxCell>
        <mxCell id="24AqgHMneCk-In3_yVUN-37" value="No" style="text;html=1;align=center;verticalAlign=middle;whiteSpace=wrap;rounded=0;" vertex="1" parent="1">
          <mxGeometry x="750" y="50" width="60" height="30" as="geometry" />
        </mxCell>
        <mxCell id="24AqgHMneCk-In3_yVUN-38" value="Off Page Link for Emergency" style="whiteSpace=wrap;html=1;shape=mxgraph.basic.document" vertex="1" parent="1">
          <mxGeometry x="820" y="180" width="60" height="60" as="geometry" />
        </mxCell>
        <mxCell id="24AqgHMneCk-In3_yVUN-39" style="edgeStyle=none;curved=1;rounded=0;orthogonalLoop=1;jettySize=auto;html=1;entryX=0.5;entryY=0;entryDx=0;entryDy=0;entryPerimeter=0;fontSize=12;startSize=8;endSize=8;" edge="1" parent="1" source="24AqgHMneCk-In3_yVUN-36" target="24AqgHMneCk-In3_yVUN-38">
          <mxGeometry relative="1" as="geometry" />
        </mxCell>
        <mxCell id="24AqgHMneCk-In3_yVUN-40" value="Unscheduled stop required" style="text;html=1;align=center;verticalAlign=middle;whiteSpace=wrap;rounded=0;" vertex="1" parent="1">
          <mxGeometry x="860" y="130" width="60" height="30" as="geometry" />
        </mxCell>
        <mxCell id="24AqgHMneCk-In3_yVUN-42" style="edgeStyle=none;curved=1;rounded=0;orthogonalLoop=1;jettySize=auto;html=1;entryX=0;entryY=0.5;entryDx=0;entryDy=0;entryPerimeter=0;fontSize=12;startSize=8;endSize=8;" edge="1" parent="1" source="24AqgHMneCk-In3_yVUN-36">
          <mxGeometry relative="1" as="geometry">
            <mxPoint x="950" y="80" as="targetPoint" />
          </mxGeometry>
        </mxCell>
        <mxCell id="24AqgHMneCk-In3_yVUN-43" value="Metro to Newcastle" style="whiteSpace=wrap;html=1;shape=mxgraph.basic.document" vertex="1" parent="1">
          <mxGeometry x="1090" y="50" width="60" height="60" as="geometry" />
        </mxCell>
        <mxCell id="24AqgHMneCk-In3_yVUN-46" value="" style="edgeStyle=none;curved=1;rounded=0;orthogonalLoop=1;jettySize=auto;html=1;fontSize=12;startSize=8;endSize=8;" edge="1" parent="1" source="24AqgHMneCk-In3_yVUN-44" target="24AqgHMneCk-In3_yVUN-43">
          <mxGeometry relative="1" as="geometry" />
        </mxCell>
        <mxCell id="24AqgHMneCk-In3_yVUN-48" value="" style="edgeStyle=none;curved=1;rounded=0;orthogonalLoop=1;jettySize=auto;html=1;fontSize=12;startSize=8;endSize=8;" edge="1" parent="1" source="24AqgHMneCk-In3_yVUN-44" target="24AqgHMneCk-In3_yVUN-47">
          <mxGeometry relative="1" as="geometry" />
        </mxCell>
        <mxCell id="24AqgHMneCk-In3_yVUN-44" value="&lt;div&gt;Successful Pass&lt;/div&gt;&lt;div&gt;DP4&lt;/div&gt;" style="rhombus;whiteSpace=wrap;html=1;" vertex="1" parent="1">
          <mxGeometry x="950" y="40" width="80" height="80" as="geometry" />
        </mxCell>
        <mxCell id="24AqgHMneCk-In3_yVUN-47" value="Off Page Link for Emergency" style="whiteSpace=wrap;html=1;shape=mxgraph.basic.document" vertex="1" parent="1">
          <mxGeometry x="960" y="180" width="60" height="60" as="geometry" />
        </mxCell>
        <mxCell id="24AqgHMneCk-In3_yVUN-49" value="Yes" style="text;html=1;align=center;verticalAlign=middle;whiteSpace=wrap;rounded=0;" vertex="1" parent="1">
          <mxGeometry x="1030" y="50" width="60" height="30" as="geometry" />
        </mxCell>
        <mxCell id="24AqgHMneCk-In3_yVUN-50" value="No" style="text;html=1;align=center;verticalAlign=middle;whiteSpace=wrap;rounded=0;" vertex="1" parent="1">
          <mxGeometry x="1000" y="130" width="60" height="30" as="geometry" />
        </mxCell>
        <mxCell id="24AqgHMneCk-In3_yVUN-51" value="No Emergency" style="text;html=1;align=center;verticalAlign=middle;whiteSpace=wrap;rounded=0;" vertex="1" parent="1">
          <mxGeometry x="890" y="40" width="60" height="30" as="geometry" />
        </mxCell>
      </root>
    </mxGraphModel>
  </diagram>
</mxfile>
